<?xml version="1.0" encoding="UTF-8" standalone="no"?>
<!-- Created with Inkscape (http://www.inkscape.org/) -->

<svg
   xmlns:dc="http://purl.org/dc/elements/1.1/"
   xmlns:cc="http://creativecommons.org/ns#"
   xmlns:rdf="http://www.w3.org/1999/02/22-rdf-syntax-ns#"
   xmlns:svg="http://www.w3.org/2000/svg"
   xmlns="http://www.w3.org/2000/svg"
   xmlns:sodipodi="http://sodipodi.sourceforge.net/DTD/sodipodi-0.dtd"
   xmlns:inkscape="http://www.inkscape.org/namespaces/inkscape"
   width="210mm"
   height="297mm"
   viewBox="0 0 210 297"
   version="1.1"
   id="svg8"
   inkscape:version="0.92.1 r15371"
   sodipodi:docname="20LA550_mass_model.svg">
  <sodipodi:namedview
     id="base"
     pagecolor="#ffffff"
     bordercolor="#666666"
     borderopacity="1.0"
     inkscape:pageopacity="0.0"
     inkscape:pageshadow="2"
     inkscape:zoom="1"
     inkscape:cx="170.15337"
     inkscape:cy="377.0125"
     inkscape:document-units="mm"
     inkscape:current-layer="layer1"
     showgrid="false"
     inkscape:snap-midpoints="true"
     inkscape:window-width="1920"
     inkscape:window-height="1018"
     inkscape:window-x="-8"
     inkscape:window-y="-8"
     inkscape:window-maximized="1" />
  <defs
     id="defs2">
    <pattern
       id="pattern6022"
       patternTransform="matrix(0.26458333,0,0,0.26458333,33.338545,216.69379)"
       height="22.294419"
       width="20.68818"
       patternUnits="userSpaceOnUse">
      <path
         style="fill:none;stroke:#000000;stroke-width:0.99999994px;stroke-linecap:butt;stroke-linejoin:miter;stroke-opacity:1"
         d="M 0.36740155,21.955279 20.320779,0.3391402"
         id="path6004"
         inkscape:connector-curvature="0" />
    </pattern>
    <pattern
       id="pattern6052"
       patternTransform="matrix(0.26458333,0,0,0.26458333,43.886374,211.79389)"
       height="27.058651"
       width="20.383801"
       patternUnits="userSpaceOnUse">
      <path
         style="fill:none;stroke:#000000;stroke-width:0.99999994px;stroke-linecap:butt;stroke-linejoin:miter;stroke-opacity:1"
         d="M 0.4019453,26.761263 19.981856,0.29738855"
         id="path6043"
         inkscape:connector-curvature="0" />
    </pattern>
  </defs>
  <metadata
     id="metadata5">
    <rdf:RDF>
      <cc:Work
         rdf:about="">
        <dc:format>image/svg+xml</dc:format>
        <dc:type
           rdf:resource="http://purl.org/dc/dcmitype/StillImage" />
        <dc:title></dc:title>
      </cc:Work>
    </rdf:RDF>
  </metadata>
  <g
     id="layer1"
     inkscape:groupmode="layer"
     inkscape:label="Layer 1">
    <g
       id="g7298">
      <path
         style="opacity:1;vector-effect:none;fill:none;fill-opacity:1;stroke:#000000;stroke-width:0.49999997;stroke-linecap:butt;stroke-linejoin:miter;stroke-miterlimit:4;stroke-dasharray:none;stroke-dashoffset:0;stroke-opacity:1"
         d="m 145.34402,249.379 -100.000348,-1e-5"
         id="path7098"
         inkscape:connector-curvature="0" />
      <path
         inkscape:connector-curvature="0"
         id="path7096"
         d="m 145.34402,236.379 -100.000348,-1e-5"
         style="opacity:1;vector-effect:none;fill:none;fill-opacity:1;stroke:#000000;stroke-width:0.49999997;stroke-linecap:butt;stroke-linejoin:miter;stroke-miterlimit:4;stroke-dasharray:none;stroke-dashoffset:0;stroke-opacity:1" />
      <path
         style="opacity:1;vector-effect:none;fill:none;fill-opacity:1;stroke:#000000;stroke-width:0.49999997;stroke-linecap:butt;stroke-linejoin:miter;stroke-miterlimit:4;stroke-dasharray:none;stroke-dashoffset:0;stroke-opacity:1"
         d="m 145.34402,223.379 -100.000348,-1e-5"
         id="path7094"
         inkscape:connector-curvature="0" />
      <path
         inkscape:connector-curvature="0"
         id="path7078"
         d="M 145.34402,210.37901 45.343672,210.379"
         style="fill:none;stroke:#000000;stroke-width:0.49999997;stroke-linecap:butt;stroke-linejoin:miter;stroke-opacity:1;font-variant-east_asian:normal;opacity:1;vector-effect:none;fill-opacity:1;stroke-miterlimit:4;stroke-dasharray:none;stroke-dashoffset:0" />
      <path
         style="opacity:1;vector-effect:none;fill:none;fill-opacity:1;stroke:#000000;stroke-width:0.49999997;stroke-linecap:butt;stroke-linejoin:miter;stroke-miterlimit:4;stroke-dasharray:none;stroke-dashoffset:0;stroke-opacity:1"
         d="m 85.344001,131.72666 v 64.21765"
         id="path7070"
         inkscape:connector-curvature="0" />
      <path
         inkscape:connector-curvature="0"
         id="path7032"
         d="m 145.34402,183.72663 -100.000348,-1e-5"
         style="fill:none;stroke:#000000;stroke-width:0.5;stroke-linecap:butt;stroke-linejoin:miter;stroke-opacity:1;font-variant-east_asian:normal;opacity:1;vector-effect:none;fill-opacity:1;stroke-miterlimit:4;stroke-dasharray:none;stroke-dashoffset:0" />
      <path
         style="opacity:1;vector-effect:none;fill:none;fill-opacity:1;stroke:#000000;stroke-width:0.5;stroke-linecap:butt;stroke-linejoin:miter;stroke-miterlimit:4;stroke-dasharray:none;stroke-dashoffset:0;stroke-opacity:1"
         d="m 145.34402,170.727 -100.000348,-1e-5"
         id="path7048"
         inkscape:connector-curvature="0" />
      <path
         inkscape:connector-curvature="0"
         id="path7050"
         d="m 145.34402,157.727 -100.000348,-1e-5"
         style="opacity:1;vector-effect:none;fill:none;fill-opacity:1;stroke:#000000;stroke-width:0.5;stroke-linecap:butt;stroke-linejoin:miter;stroke-miterlimit:4;stroke-dasharray:none;stroke-dashoffset:0;stroke-opacity:1" />
      <path
         style="opacity:1;vector-effect:none;fill:none;fill-opacity:1;stroke:#000000;stroke-width:0.5;stroke-linecap:butt;stroke-linejoin:miter;stroke-miterlimit:4;stroke-dasharray:none;stroke-dashoffset:0;stroke-opacity:1"
         d="m 145.34402,144.727 -100.000348,-1e-5"
         id="path7052"
         inkscape:connector-curvature="0" />
      <path
         sodipodi:nodetypes="cccc"
         inkscape:connector-curvature="0"
         id="path7012"
         d="M 45.343672,194.51664 V 131.72666 H 145.34402 l 0,62.84756"
         style="opacity:1;vector-effect:none;fill:none;fill-opacity:1;stroke:#000000;stroke-width:0.5;stroke-linecap:butt;stroke-linejoin:miter;stroke-miterlimit:4;stroke-dasharray:none;stroke-dashoffset:0;stroke-opacity:1" />
      <path
         style="fill:none;stroke:#000000;stroke-width:0.49999994;stroke-linecap:butt;stroke-linejoin:miter;stroke-miterlimit:4;stroke-dasharray:none;stroke-opacity:1"
         d="M 85.344008,210.379 V 199.09879"
         id="path6896"
         inkscape:connector-curvature="0"
         sodipodi:nodetypes="cc" />
      <path
         sodipodi:nodetypes="cc"
         style="fill:none;stroke:#000000;stroke-width:0.5;stroke-linecap:butt;stroke-linejoin:miter;stroke-miterlimit:4;stroke-dasharray:none;stroke-opacity:1"
         d="m 45.343672,210.37901 v -13"
         id="path6898"
         inkscape:connector-curvature="0" />
      <path
         inkscape:connector-curvature="0"
         id="path6900"
         d="M 65.344012,210.379 V 197.91826"
         style="fill:none;stroke:#000000;stroke-width:0.49999994;stroke-linecap:butt;stroke-linejoin:miter;stroke-miterlimit:4;stroke-dasharray:none;stroke-opacity:1"
         sodipodi:nodetypes="cc" />
      <path
         inkscape:connector-curvature="0"
         id="path6902"
         d="M 105.34402,210.37901 V 199.57008"
         style="fill:none;stroke:#000000;stroke-width:0.49999997;stroke-linecap:butt;stroke-linejoin:miter;stroke-miterlimit:4;stroke-dasharray:none;stroke-opacity:1"
         sodipodi:nodetypes="cc" />
      <path
         sodipodi:nodetypes="cc"
         inkscape:connector-curvature="0"
         id="path6858"
         d="m 85.344012,223.37901 v -13"
         style="fill:none;stroke:#000000;stroke-width:0.5;stroke-linecap:butt;stroke-linejoin:miter;stroke-miterlimit:4;stroke-dasharray:none;stroke-opacity:1" />
      <path
         sodipodi:nodetypes="cc"
         style="fill:none;stroke:#000000;stroke-width:0.5;stroke-linecap:butt;stroke-linejoin:miter;stroke-miterlimit:4;stroke-dasharray:none;stroke-opacity:1"
         d="m 45.343672,236.37901 v -13"
         id="path6782"
         inkscape:connector-curvature="0" />
      <path
         style="fill:none;stroke:#000000;stroke-width:0.5;stroke-linecap:butt;stroke-linejoin:miter;stroke-miterlimit:4;stroke-dasharray:none;stroke-opacity:1"
         d="m 45.343672,262.37901 v -13"
         id="path4485"
         inkscape:connector-curvature="0"
         sodipodi:nodetypes="cc" />
      <path
         inkscape:connector-curvature="0"
         id="path4489"
         d="m 65.344014,262.37901 v -13"
         style="fill:none;stroke:#000000;stroke-width:0.5;stroke-linecap:butt;stroke-linejoin:miter;stroke-miterlimit:4;stroke-dasharray:none;stroke-opacity:1"
         sodipodi:nodetypes="cc" />
      <path
         style="fill:none;stroke:#000000;stroke-width:0.5;stroke-linecap:butt;stroke-linejoin:miter;stroke-miterlimit:4;stroke-dasharray:none;stroke-opacity:1"
         d="m 85.344012,262.37901 v -13"
         id="path4491"
         inkscape:connector-curvature="0"
         sodipodi:nodetypes="cc" />
      <path
         inkscape:connector-curvature="0"
         id="path4493"
         d="m 105.34402,262.37901 v -13"
         style="fill:none;stroke:#000000;stroke-width:0.5;stroke-linecap:butt;stroke-linejoin:miter;stroke-miterlimit:4;stroke-dasharray:none;stroke-opacity:1"
         sodipodi:nodetypes="cc" />
      <path
         inkscape:connector-curvature="0"
         id="path4507"
         d="m 45.343672,249.37901 v -13"
         style="fill:none;stroke:#000000;stroke-width:0.5;stroke-linecap:butt;stroke-linejoin:miter;stroke-miterlimit:4;stroke-dasharray:none;stroke-opacity:1"
         sodipodi:nodetypes="cc" />
      <path
         style="fill:none;stroke:#000000;stroke-width:0.5;stroke-linecap:butt;stroke-linejoin:miter;stroke-miterlimit:4;stroke-dasharray:none;stroke-opacity:1"
         d="m 65.344014,249.37901 v -13"
         id="path4509"
         inkscape:connector-curvature="0"
         sodipodi:nodetypes="cc" />
      <path
         inkscape:connector-curvature="0"
         id="path4511"
         d="m 85.344012,249.37901 v -13"
         style="fill:none;stroke:#000000;stroke-width:0.5;stroke-linecap:butt;stroke-linejoin:miter;stroke-miterlimit:4;stroke-dasharray:none;stroke-opacity:1"
         sodipodi:nodetypes="cc" />
      <path
         style="fill:none;stroke:#000000;stroke-width:0.5;stroke-linecap:butt;stroke-linejoin:miter;stroke-miterlimit:4;stroke-dasharray:none;stroke-opacity:1"
         d="m 105.34402,249.37901 v -13"
         id="path4513"
         inkscape:connector-curvature="0"
         sodipodi:nodetypes="cc" />
      <path
         inkscape:connector-curvature="0"
         id="path4521"
         d="m 65.344014,236.37901 v -13"
         style="fill:none;stroke:#000000;stroke-width:0.5;stroke-linecap:butt;stroke-linejoin:miter;stroke-miterlimit:4;stroke-dasharray:none;stroke-opacity:1"
         sodipodi:nodetypes="cc" />
      <path
         style="fill:none;stroke:#000000;stroke-width:0.5;stroke-linecap:butt;stroke-linejoin:miter;stroke-miterlimit:4;stroke-dasharray:none;stroke-opacity:1"
         d="m 85.344012,236.37901 v -13"
         id="path4523"
         inkscape:connector-curvature="0"
         sodipodi:nodetypes="cc" />
      <path
         inkscape:connector-curvature="0"
         id="path4525"
         d="m 105.34402,236.37901 v -13"
         style="fill:none;stroke:#000000;stroke-width:0.5;stroke-linecap:butt;stroke-linejoin:miter;stroke-miterlimit:4;stroke-dasharray:none;stroke-opacity:1"
         sodipodi:nodetypes="cc" />
      <path
         inkscape:connector-curvature="0"
         id="path4551"
         d="m 40.691663,262.37902 h 27.322479 v 0 h 27.32249 27.322468 27.32248"
         style="fill:none;stroke:#000000;stroke-width:0.26458332px;stroke-linecap:butt;stroke-linejoin:miter;stroke-opacity:1"
         sodipodi:nodetypes="cccccc" />
      <rect
         style="opacity:1;vector-effect:none;fill:#000000;fill-opacity:1;stroke:none;stroke-width:0.5;stroke-linecap:butt;stroke-linejoin:miter;stroke-miterlimit:4;stroke-dasharray:none;stroke-dashoffset:0;stroke-opacity:1;paint-order:stroke markers fill"
         id="rect6067"
         width="9.3040285"
         height="2.0739136"
         x="40.691658"
         y="262.379" />
      <rect
         y="262.379"
         x="60.692001"
         height="2.0739136"
         width="9.3040285"
         id="rect6069"
         style="opacity:1;vector-effect:none;fill:#000000;fill-opacity:1;stroke:none;stroke-width:0.5;stroke-linecap:butt;stroke-linejoin:miter;stroke-miterlimit:4;stroke-dasharray:none;stroke-dashoffset:0;stroke-opacity:1;paint-order:stroke markers fill" />
      <rect
         style="opacity:1;vector-effect:none;fill:#000000;fill-opacity:1;stroke:none;stroke-width:0.5;stroke-linecap:butt;stroke-linejoin:miter;stroke-miterlimit:4;stroke-dasharray:none;stroke-dashoffset:0;stroke-opacity:1;paint-order:stroke markers fill"
         id="rect6071"
         width="9.3040285"
         height="2.0739136"
         x="80.692001"
         y="262.379" />
      <rect
         y="262.379"
         x="100.692"
         height="2.0739136"
         width="9.3040285"
         id="rect6073"
         style="opacity:1;vector-effect:none;fill:#000000;fill-opacity:1;stroke:none;stroke-width:0.5;stroke-linecap:butt;stroke-linejoin:miter;stroke-miterlimit:4;stroke-dasharray:none;stroke-dashoffset:0;stroke-opacity:1;paint-order:stroke markers fill" />
      <g
         style="stroke-width:2"
         transform="matrix(0.49999998,0,0,0.49999999,-2.3789929,182.47601)"
         id="g6571">
        <g
           style="font-style:normal;font-variant:normal;font-weight:normal;font-stretch:normal;letter-spacing:normal;word-spacing:normal;text-anchor:start;fill:none;fill-opacity:1;fill-rule:evenodd;stroke:#000000;stroke-width:4;stroke-linecap:butt;stroke-linejoin:miter;stroke-miterlimit:10.43299961;stroke-dasharray:none;stroke-dashoffset:0;stroke-opacity:1"
           id="g6569"
           transform="matrix(0.3,0,0,-0.3,-52.5,222.75)"
           xml:space="preserve"
           stroke-miterlimit="10.433"
           font-style="normal"
           font-variant="normal"
           font-weight="normal"
           font-stretch="normal"
           font-size-adjust="none"
           letter-spacing="normal"
           word-spacing="normal"><path
             style="fill:#000000;stroke-width:0"
             inkscape:connector-curvature="0"
             d="m 469.82,440.23 v 0 0.01 0 0.01 l -0.01,0.02 v 0.01 0.02 0.02 0.02 l -0.01,0.02 v 0.02 l -0.01,0.02 -0.01,0.02 -0.01,0.03 -0.01,0.02 -0.01,0.03 -0.01,0.02 -0.02,0.03 -0.02,0.02 -0.02,0.02 -0.02,0.03 -0.01,0.01 -0.01,0.01 -0.02,0.01 -0.01,0.01 -0.02,0.01 -0.01,0.01 -0.02,0.01 -0.01,0.01 -0.02,0.01 -0.02,0.01 h -0.02 l -0.02,0.01 -0.02,0.01 h -0.02 l -0.02,0.01 -0.02,0.01 h -0.03 -0.02 l -0.03,0.01 h -0.02 -0.03 l -0.03,0.01 h -0.02 -0.03 c -1.16,0 -4.79,-0.41 -6.08,-0.5 -0.41,-0.05 -0.96,-0.1 -0.96,-1 0,-0.6 0.46,-0.6 1.21,-0.6 2.39,0 2.48,-0.34 2.48,-0.84 l -0.15,-1 -7.22,-28.7 c -0.21,-0.69 -0.21,-0.8 -0.21,-1.1 0,-1.14 1,-1.39 1.46,-1.39 0.64,0 1.39,0.46 1.68,1.05 0.25,0.45 2.5,9.66 2.8,10.91 1.69,-0.15 5.78,-0.94 5.78,-4.24 0,-0.34 0,-0.55 -0.15,-1.05 -0.1,-0.59 -0.21,-1.18 -0.21,-1.73 0,-2.95 2,-4.94 4.6,-4.94 1.48,0 2.83,0.8 3.93,2.64 1.24,2.19 1.79,4.94 1.79,5.03 0,0.5 -0.44,0.5 -0.6,0.5 -0.5,0 -0.54,-0.2 -0.7,-0.9 -0.99,-3.63 -2.14,-6.17 -4.33,-6.17 -0.94,0 -1.59,0.54 -1.59,2.34 0,0.84 0.2,1.98 0.4,2.78 0.19,0.86 0.19,1.05 0.19,1.55 0,3.25 -3.14,4.69 -7.37,5.23 1.54,0.91 3.14,2.5 4.29,3.69 2.39,2.64 4.67,4.78 7.13,4.78 0.29,0 0.34,0 0.44,-0.05 0.6,-0.09 0.65,-0.09 1.04,-0.39 0.11,-0.06 0.11,-0.11 0.21,-0.2 -2.4,-0.16 -2.85,-2.09 -2.85,-2.69 0,-0.79 0.55,-1.75 1.89,-1.75 1.3,0 2.75,1.1 2.75,3.03 0,1.5 -1.15,3.14 -3.39,3.14 -1.39,0 -3.69,-0.39 -7.28,-4.37 -1.69,-1.89 -3.62,-3.89 -5.52,-4.64 z"
             id="path6567" /></g>      </g>
      <g
         id="g6625"
         transform="matrix(0.49999998,0,0,0.49999999,-2.1914929,195.56451)"
         style="stroke-width:2">
        <g
           word-spacing="normal"
           letter-spacing="normal"
           font-size-adjust="none"
           font-stretch="normal"
           font-weight="normal"
           font-variant="normal"
           font-style="normal"
           stroke-miterlimit="10.433"
           xml:space="preserve"
           transform="matrix(0.3,0,0,-0.3,-52.5,222.75)"
           id="g6623"
           style="font-style:normal;font-variant:normal;font-weight:normal;font-stretch:normal;letter-spacing:normal;word-spacing:normal;text-anchor:start;fill:none;fill-opacity:1;fill-rule:evenodd;stroke:#000000;stroke-width:4;stroke-linecap:butt;stroke-linejoin:miter;stroke-miterlimit:10.43299961;stroke-dasharray:none;stroke-dashoffset:0;stroke-opacity:1"><path
             id="path6621"
             d="m 469.82,440.23 v 0 0.01 0 0.01 l -0.01,0.02 v 0.01 0.02 0.02 0.02 l -0.01,0.02 v 0.02 l -0.01,0.02 -0.01,0.02 -0.01,0.03 -0.01,0.02 -0.01,0.03 -0.01,0.02 -0.02,0.03 -0.02,0.02 -0.02,0.02 -0.02,0.03 -0.01,0.01 -0.01,0.01 -0.02,0.01 -0.01,0.01 -0.02,0.01 -0.01,0.01 -0.02,0.01 -0.01,0.01 -0.02,0.01 -0.02,0.01 h -0.02 l -0.02,0.01 -0.02,0.01 h -0.02 l -0.02,0.01 -0.02,0.01 h -0.03 -0.02 l -0.03,0.01 h -0.02 -0.03 l -0.03,0.01 h -0.02 -0.03 c -1.16,0 -4.79,-0.41 -6.08,-0.5 -0.41,-0.05 -0.96,-0.1 -0.96,-1 0,-0.6 0.46,-0.6 1.21,-0.6 2.39,0 2.48,-0.34 2.48,-0.84 l -0.15,-1 -7.22,-28.7 c -0.21,-0.69 -0.21,-0.8 -0.21,-1.1 0,-1.14 1,-1.39 1.46,-1.39 0.64,0 1.39,0.46 1.68,1.05 0.25,0.45 2.5,9.66 2.8,10.91 1.69,-0.15 5.78,-0.94 5.78,-4.24 0,-0.34 0,-0.55 -0.15,-1.05 -0.1,-0.59 -0.21,-1.18 -0.21,-1.73 0,-2.95 2,-4.94 4.6,-4.94 1.48,0 2.83,0.8 3.93,2.64 1.24,2.19 1.79,4.94 1.79,5.03 0,0.5 -0.44,0.5 -0.6,0.5 -0.5,0 -0.54,-0.2 -0.7,-0.9 -0.99,-3.63 -2.14,-6.17 -4.33,-6.17 -0.94,0 -1.59,0.54 -1.59,2.34 0,0.84 0.2,1.98 0.4,2.78 0.19,0.86 0.19,1.05 0.19,1.55 0,3.25 -3.14,4.69 -7.37,5.23 1.54,0.91 3.14,2.5 4.29,3.69 2.39,2.64 4.67,4.78 7.13,4.78 0.29,0 0.34,0 0.44,-0.05 0.6,-0.09 0.65,-0.09 1.04,-0.39 0.11,-0.06 0.11,-0.11 0.21,-0.2 -2.4,-0.16 -2.85,-2.09 -2.85,-2.69 0,-0.79 0.55,-1.75 1.89,-1.75 1.3,0 2.75,1.1 2.75,3.03 0,1.5 -1.15,3.14 -3.39,3.14 -1.39,0 -3.69,-0.39 -7.28,-4.37 -1.69,-1.89 -3.62,-3.89 -5.52,-4.64 z"
             inkscape:connector-curvature="0"
             style="fill:#000000;stroke-width:0" /></g>      </g>
      <g
         style="stroke-width:2"
         transform="matrix(0.49999998,0,0,0.49999999,-2.3789929,208.47601)"
         id="g6631">
        <g
           style="font-style:normal;font-variant:normal;font-weight:normal;font-stretch:normal;letter-spacing:normal;word-spacing:normal;text-anchor:start;fill:none;fill-opacity:1;fill-rule:evenodd;stroke:#000000;stroke-width:4;stroke-linecap:butt;stroke-linejoin:miter;stroke-miterlimit:10.43299961;stroke-dasharray:none;stroke-dashoffset:0;stroke-opacity:1"
           id="g6629"
           transform="matrix(0.3,0,0,-0.3,-52.5,222.75)"
           xml:space="preserve"
           stroke-miterlimit="10.433"
           font-style="normal"
           font-variant="normal"
           font-weight="normal"
           font-stretch="normal"
           font-size-adjust="none"
           letter-spacing="normal"
           word-spacing="normal"><path
             style="fill:#000000;stroke-width:0"
             inkscape:connector-curvature="0"
             d="m 469.82,440.23 v 0 0.01 0 0.01 l -0.01,0.02 v 0.01 0.02 0.02 0.02 l -0.01,0.02 v 0.02 l -0.01,0.02 -0.01,0.02 -0.01,0.03 -0.01,0.02 -0.01,0.03 -0.01,0.02 -0.02,0.03 -0.02,0.02 -0.02,0.02 -0.02,0.03 -0.01,0.01 -0.01,0.01 -0.02,0.01 -0.01,0.01 -0.02,0.01 -0.01,0.01 -0.02,0.01 -0.01,0.01 -0.02,0.01 -0.02,0.01 h -0.02 l -0.02,0.01 -0.02,0.01 h -0.02 l -0.02,0.01 -0.02,0.01 h -0.03 -0.02 l -0.03,0.01 h -0.02 -0.03 l -0.03,0.01 h -0.02 -0.03 c -1.16,0 -4.79,-0.41 -6.08,-0.5 -0.41,-0.05 -0.96,-0.1 -0.96,-1 0,-0.6 0.46,-0.6 1.21,-0.6 2.39,0 2.48,-0.34 2.48,-0.84 l -0.15,-1 -7.22,-28.7 c -0.21,-0.69 -0.21,-0.8 -0.21,-1.1 0,-1.14 1,-1.39 1.46,-1.39 0.64,0 1.39,0.46 1.68,1.05 0.25,0.45 2.5,9.66 2.8,10.91 1.69,-0.15 5.78,-0.94 5.78,-4.24 0,-0.34 0,-0.55 -0.15,-1.05 -0.1,-0.59 -0.21,-1.18 -0.21,-1.73 0,-2.95 2,-4.94 4.6,-4.94 1.48,0 2.83,0.8 3.93,2.64 1.24,2.19 1.79,4.94 1.79,5.03 0,0.5 -0.44,0.5 -0.6,0.5 -0.5,0 -0.54,-0.2 -0.7,-0.9 -0.99,-3.63 -2.14,-6.17 -4.33,-6.17 -0.94,0 -1.59,0.54 -1.59,2.34 0,0.84 0.2,1.98 0.4,2.78 0.19,0.86 0.19,1.05 0.19,1.55 0,3.25 -3.14,4.69 -7.37,5.23 1.54,0.91 3.14,2.5 4.29,3.69 2.39,2.64 4.67,4.78 7.13,4.78 0.29,0 0.34,0 0.44,-0.05 0.6,-0.09 0.65,-0.09 1.04,-0.39 0.11,-0.06 0.11,-0.11 0.21,-0.2 -2.4,-0.16 -2.85,-2.09 -2.85,-2.69 0,-0.79 0.55,-1.75 1.89,-1.75 1.3,0 2.75,1.1 2.75,3.03 0,1.5 -1.15,3.14 -3.39,3.14 -1.39,0 -3.69,-0.39 -7.28,-4.37 -1.69,-1.89 -3.62,-3.89 -5.52,-4.64 z"
             id="path6627" /></g>      </g>
      <g
         id="g6780"
         transform="matrix(0.49999998,0,0,0.49999999,-2.3789929,90.823665)"
         style="stroke-width:2">
        <g
           word-spacing="normal"
           letter-spacing="normal"
           font-size-adjust="none"
           font-stretch="normal"
           font-weight="normal"
           font-variant="normal"
           font-style="normal"
           stroke-miterlimit="10.433"
           xml:space="preserve"
           transform="matrix(0.3,0,0,-0.3,-52.5,222.75)"
           id="g6778"
           style="font-style:normal;font-variant:normal;font-weight:normal;font-stretch:normal;letter-spacing:normal;word-spacing:normal;text-anchor:start;fill:none;fill-opacity:1;fill-rule:evenodd;stroke:#000000;stroke-width:4;stroke-linecap:butt;stroke-linejoin:miter;stroke-miterlimit:10.43299961;stroke-dasharray:none;stroke-dashoffset:0;stroke-opacity:1"><path
             id="path6776"
             d="m 469.82,440.23 v 0 0.01 0 0.01 l -0.01,0.02 v 0.01 0.02 0.02 0.02 l -0.01,0.02 v 0.02 l -0.01,0.02 -0.01,0.02 -0.01,0.03 -0.01,0.02 -0.01,0.03 -0.01,0.02 -0.02,0.03 -0.02,0.02 -0.02,0.02 -0.02,0.03 -0.01,0.01 -0.01,0.01 -0.02,0.01 -0.01,0.01 -0.02,0.01 -0.01,0.01 -0.02,0.01 -0.01,0.01 -0.02,0.01 -0.02,0.01 h -0.02 l -0.02,0.01 -0.02,0.01 h -0.02 l -0.02,0.01 -0.02,0.01 h -0.03 -0.02 l -0.03,0.01 h -0.02 -0.03 l -0.03,0.01 h -0.02 -0.03 c -1.16,0 -4.79,-0.41 -6.08,-0.5 -0.41,-0.05 -0.96,-0.1 -0.96,-1 0,-0.6 0.46,-0.6 1.21,-0.6 2.39,0 2.48,-0.34 2.48,-0.84 l -0.15,-1 -7.22,-28.7 c -0.21,-0.69 -0.21,-0.8 -0.21,-1.1 0,-1.14 1,-1.39 1.46,-1.39 0.64,0 1.39,0.46 1.68,1.05 0.25,0.45 2.5,9.66 2.8,10.91 1.69,-0.15 5.78,-0.94 5.78,-4.24 0,-0.34 0,-0.55 -0.15,-1.05 -0.1,-0.59 -0.21,-1.18 -0.21,-1.73 0,-2.95 2,-4.94 4.6,-4.94 1.48,0 2.83,0.8 3.93,2.64 1.24,2.19 1.79,4.94 1.79,5.03 0,0.5 -0.44,0.5 -0.6,0.5 -0.5,0 -0.54,-0.2 -0.7,-0.9 -0.99,-3.63 -2.14,-6.17 -4.33,-6.17 -0.94,0 -1.59,0.54 -1.59,2.34 0,0.84 0.2,1.98 0.4,2.78 0.19,0.86 0.19,1.05 0.19,1.55 0,3.25 -3.14,4.69 -7.37,5.23 1.54,0.91 3.14,2.5 4.29,3.69 2.39,2.64 4.67,4.78 7.13,4.78 0.29,0 0.34,0 0.44,-0.05 0.6,-0.09 0.65,-0.09 1.04,-0.39 0.11,-0.06 0.11,-0.11 0.21,-0.2 -2.4,-0.16 -2.85,-2.09 -2.85,-2.69 0,-0.79 0.55,-1.75 1.89,-1.75 1.3,0 2.75,1.1 2.75,3.03 0,1.5 -1.15,3.14 -3.39,3.14 -1.39,0 -3.69,-0.39 -7.28,-4.37 -1.69,-1.89 -3.62,-3.89 -5.52,-4.64 z"
             inkscape:connector-curvature="0"
             style="fill:#000000;stroke-width:0" /></g>      </g>
      <path
         inkscape:connector-curvature="0"
         id="path6846"
         d="m 45.343672,223.37901 v -13"
         style="fill:none;stroke:#000000;stroke-width:0.5;stroke-linecap:butt;stroke-linejoin:miter;stroke-miterlimit:4;stroke-dasharray:none;stroke-opacity:1"
         sodipodi:nodetypes="cc" />
      <path
         sodipodi:nodetypes="cc"
         style="fill:none;stroke:#000000;stroke-width:0.5;stroke-linecap:butt;stroke-linejoin:miter;stroke-miterlimit:4;stroke-dasharray:none;stroke-opacity:1"
         d="m 65.344014,223.37901 v -13"
         id="path6856"
         inkscape:connector-curvature="0" />
      <path
         sodipodi:nodetypes="cc"
         style="fill:none;stroke:#000000;stroke-width:0.5;stroke-linecap:butt;stroke-linejoin:miter;stroke-miterlimit:4;stroke-dasharray:none;stroke-opacity:1"
         d="m 105.34402,223.37901 v -13"
         id="path6860"
         inkscape:connector-curvature="0" />
      <g
         transform="matrix(0.49999999,0,0,0.49999998,55.574859,168.79024)"
         id="g6161"
         style="stroke-width:2">
        <g
           style="font-style:normal;font-variant:normal;font-weight:normal;font-stretch:normal;letter-spacing:normal;word-spacing:normal;text-anchor:start;fill:none;fill-opacity:1;fill-rule:evenodd;stroke:#000000;stroke-width:2;stroke-linecap:butt;stroke-linejoin:miter;stroke-miterlimit:10.43299961;stroke-dasharray:none;stroke-dashoffset:0;stroke-opacity:1"
           id="content"
           transform="matrix(0.3,0,0,-0.3,-52.5,222.75)"
           xml:space="preserve"
           stroke-miterlimit="10.433"
           font-style="normal"
           font-variant="normal"
           font-weight="normal"
           font-stretch="normal"
           font-size-adjust="none"
           letter-spacing="normal"
           word-spacing="normal"><path
             style="fill:#000000;stroke-width:0"
             inkscape:connector-curvature="0"
             d="m 459.91,409.14 -0.02,-0.07 -0.01,-0.08 -0.02,-0.07 -0.01,-0.08 -0.04,-0.16 -0.04,-0.16 -0.03,-0.16 -0.04,-0.16 -0.04,-0.16 -0.03,-0.16 -0.02,-0.08 -0.02,-0.07 -0.02,-0.07 -0.01,-0.07 -0.02,-0.07 -0.01,-0.07 -0.01,-0.06 -0.01,-0.06 -0.01,-0.06 -0.01,-0.05 -0.01,-0.05 -0.01,-0.04 -0.01,-0.04 v -0.04 -0.03 -0.02 c 0,-0.89 0.7,-1.35 1.43,-1.35 0.61,0 1.5,0.39 1.85,1.39 0.06,0.11 0.65,2.44 0.95,3.69 l 1.1,4.48 c 0.29,1.1 0.59,2.19 0.84,3.35 0.2,0.84 0.61,2.28 0.66,2.48 0.75,1.55 3.39,6.08 8.1,6.08 2.25,0 2.71,-1.84 2.71,-3.48 0,-1.25 -0.36,-2.64 -0.75,-4.14 l -1.39,-5.79 -1,-3.78 c -0.21,-1 -0.66,-2.68 -0.66,-2.93 0,-0.89 0.7,-1.35 1.45,-1.35 1.55,0 1.85,1.25 2.24,2.85 0.7,2.78 2.55,10.06 3,12 0.14,0.65 2.78,6.62 8.22,6.62 2.14,0 2.68,-1.69 2.68,-3.48 0,-2.85 -2.09,-8.52 -3.09,-11.16 -0.45,-1.2 -0.64,-1.75 -0.64,-2.75 0,-2.33 1.73,-4.08 4.08,-4.08 4.69,0 6.53,7.27 6.53,7.67 0,0.5 -0.45,0.5 -0.59,0.5 -0.5,0 -0.5,-0.15 -0.75,-0.9 -0.75,-2.64 -2.35,-6.17 -5.08,-6.17 -0.86,0 -1.21,0.5 -1.21,1.64 0,1.25 0.46,2.45 0.9,3.54 0.95,2.58 3.04,8.11 3.04,10.96 0,3.23 -2,5.32 -5.73,5.32 -3.74,0 -6.27,-2.18 -8.11,-4.82 -0.06,0.65 -0.2,2.34 -1.61,3.53 -1.24,1.04 -2.83,1.29 -4.08,1.29 -4.48,0 -6.92,-3.18 -7.76,-4.32 -0.25,2.84 -2.35,4.32 -4.6,4.32 -2.28,0 -3.23,-1.93 -3.69,-2.82 -0.89,-1.75 -1.54,-4.69 -1.54,-4.85 0,-0.5 0.5,-0.5 0.61,-0.5 0.5,0 0.54,0.07 0.84,1.16 0.84,3.53 1.84,5.92 3.64,5.92 0.8,0 1.55,-0.39 1.55,-2.28 0,-1.05 -0.16,-1.61 -0.8,-4.19 z"
             id="path6158" /></g>      </g>
      <g
         style="stroke-width:2"
         id="g6512"
         transform="matrix(0.49999999,0,0,0.49999998,55.574861,181.79023)">
        <g
           word-spacing="normal"
           letter-spacing="normal"
           font-size-adjust="none"
           font-stretch="normal"
           font-weight="normal"
           font-variant="normal"
           font-style="normal"
           stroke-miterlimit="10.433"
           xml:space="preserve"
           transform="matrix(0.3,0,0,-0.3,-52.5,222.75)"
           id="g6510"
           style="font-style:normal;font-variant:normal;font-weight:normal;font-stretch:normal;letter-spacing:normal;word-spacing:normal;text-anchor:start;fill:none;fill-opacity:1;fill-rule:evenodd;stroke:#000000;stroke-width:2;stroke-linecap:butt;stroke-linejoin:miter;stroke-miterlimit:10.43299961;stroke-dasharray:none;stroke-dashoffset:0;stroke-opacity:1"><path
             id="path6508"
             d="m 459.91,409.14 -0.02,-0.07 -0.01,-0.08 -0.02,-0.07 -0.01,-0.08 -0.04,-0.16 -0.04,-0.16 -0.03,-0.16 -0.04,-0.16 -0.04,-0.16 -0.03,-0.16 -0.02,-0.08 -0.02,-0.07 -0.02,-0.07 -0.01,-0.07 -0.02,-0.07 -0.01,-0.07 -0.01,-0.06 -0.01,-0.06 -0.01,-0.06 -0.01,-0.05 -0.01,-0.05 -0.01,-0.04 -0.01,-0.04 v -0.04 -0.03 -0.02 c 0,-0.89 0.7,-1.35 1.43,-1.35 0.61,0 1.5,0.39 1.85,1.39 0.06,0.11 0.65,2.44 0.95,3.69 l 1.1,4.48 c 0.29,1.1 0.59,2.19 0.84,3.35 0.2,0.84 0.61,2.28 0.66,2.48 0.75,1.55 3.39,6.08 8.1,6.08 2.25,0 2.71,-1.84 2.71,-3.48 0,-1.25 -0.36,-2.64 -0.75,-4.14 l -1.39,-5.79 -1,-3.78 c -0.21,-1 -0.66,-2.68 -0.66,-2.93 0,-0.89 0.7,-1.35 1.45,-1.35 1.55,0 1.85,1.25 2.24,2.85 0.7,2.78 2.55,10.06 3,12 0.14,0.65 2.78,6.62 8.22,6.62 2.14,0 2.68,-1.69 2.68,-3.48 0,-2.85 -2.09,-8.52 -3.09,-11.16 -0.45,-1.2 -0.64,-1.75 -0.64,-2.75 0,-2.33 1.73,-4.08 4.08,-4.08 4.69,0 6.53,7.27 6.53,7.67 0,0.5 -0.45,0.5 -0.59,0.5 -0.5,0 -0.5,-0.15 -0.75,-0.9 -0.75,-2.64 -2.35,-6.17 -5.08,-6.17 -0.86,0 -1.21,0.5 -1.21,1.64 0,1.25 0.46,2.45 0.9,3.54 0.95,2.58 3.04,8.11 3.04,10.96 0,3.23 -2,5.32 -5.73,5.32 -3.74,0 -6.27,-2.18 -8.11,-4.82 -0.06,0.65 -0.2,2.34 -1.61,3.53 -1.24,1.04 -2.83,1.29 -4.08,1.29 -4.48,0 -6.92,-3.18 -7.76,-4.32 -0.25,2.84 -2.35,4.32 -4.6,4.32 -2.28,0 -3.23,-1.93 -3.69,-2.82 -0.89,-1.75 -1.54,-4.69 -1.54,-4.85 0,-0.5 0.5,-0.5 0.61,-0.5 0.5,0 0.54,0.07 0.84,1.16 0.84,3.53 1.84,5.92 3.64,5.92 0.8,0 1.55,-0.39 1.55,-2.28 0,-1.05 -0.16,-1.61 -0.8,-4.19 z"
             inkscape:connector-curvature="0"
             style="fill:#000000;stroke-width:0" /></g>      </g>
      <g
         transform="matrix(0.49999999,0,0,0.49999998,55.574861,194.79024)"
         id="g6520"
         style="stroke-width:2">
        <g
           style="font-style:normal;font-variant:normal;font-weight:normal;font-stretch:normal;letter-spacing:normal;word-spacing:normal;text-anchor:start;fill:none;fill-opacity:1;fill-rule:evenodd;stroke:#000000;stroke-width:2;stroke-linecap:butt;stroke-linejoin:miter;stroke-miterlimit:10.43299961;stroke-dasharray:none;stroke-dashoffset:0;stroke-opacity:1"
           id="g6518"
           transform="matrix(0.3,0,0,-0.3,-52.5,222.75)"
           xml:space="preserve"
           stroke-miterlimit="10.433"
           font-style="normal"
           font-variant="normal"
           font-weight="normal"
           font-stretch="normal"
           font-size-adjust="none"
           letter-spacing="normal"
           word-spacing="normal"><path
             style="fill:#000000;stroke-width:0"
             inkscape:connector-curvature="0"
             d="m 459.91,409.14 -0.02,-0.07 -0.01,-0.08 -0.02,-0.07 -0.01,-0.08 -0.04,-0.16 -0.04,-0.16 -0.03,-0.16 -0.04,-0.16 -0.04,-0.16 -0.03,-0.16 -0.02,-0.08 -0.02,-0.07 -0.02,-0.07 -0.01,-0.07 -0.02,-0.07 -0.01,-0.07 -0.01,-0.06 -0.01,-0.06 -0.01,-0.06 -0.01,-0.05 -0.01,-0.05 -0.01,-0.04 -0.01,-0.04 v -0.04 -0.03 -0.02 c 0,-0.89 0.7,-1.35 1.43,-1.35 0.61,0 1.5,0.39 1.85,1.39 0.06,0.11 0.65,2.44 0.95,3.69 l 1.1,4.48 c 0.29,1.1 0.59,2.19 0.84,3.35 0.2,0.84 0.61,2.28 0.66,2.48 0.75,1.55 3.39,6.08 8.1,6.08 2.25,0 2.71,-1.84 2.71,-3.48 0,-1.25 -0.36,-2.64 -0.75,-4.14 l -1.39,-5.79 -1,-3.78 c -0.21,-1 -0.66,-2.68 -0.66,-2.93 0,-0.89 0.7,-1.35 1.45,-1.35 1.55,0 1.85,1.25 2.24,2.85 0.7,2.78 2.55,10.06 3,12 0.14,0.65 2.78,6.62 8.22,6.62 2.14,0 2.68,-1.69 2.68,-3.48 0,-2.85 -2.09,-8.52 -3.09,-11.16 -0.45,-1.2 -0.64,-1.75 -0.64,-2.75 0,-2.33 1.73,-4.08 4.08,-4.08 4.69,0 6.53,7.27 6.53,7.67 0,0.5 -0.45,0.5 -0.59,0.5 -0.5,0 -0.5,-0.15 -0.75,-0.9 -0.75,-2.64 -2.35,-6.17 -5.08,-6.17 -0.86,0 -1.21,0.5 -1.21,1.64 0,1.25 0.46,2.45 0.9,3.54 0.95,2.58 3.04,8.11 3.04,10.96 0,3.23 -2,5.32 -5.73,5.32 -3.74,0 -6.27,-2.18 -8.11,-4.82 -0.06,0.65 -0.2,2.34 -1.61,3.53 -1.24,1.04 -2.83,1.29 -4.08,1.29 -4.48,0 -6.92,-3.18 -7.76,-4.32 -0.25,2.84 -2.35,4.32 -4.6,4.32 -2.28,0 -3.23,-1.93 -3.69,-2.82 -0.89,-1.75 -1.54,-4.69 -1.54,-4.85 0,-0.5 0.5,-0.5 0.61,-0.5 0.5,0 0.54,0.07 0.84,1.16 0.84,3.53 1.84,5.92 3.64,5.92 0.8,0 1.55,-0.39 1.55,-2.28 0,-1.05 -0.16,-1.61 -0.8,-4.19 z"
             id="path6516" /></g>      </g>
      <g
         style="stroke-width:2"
         id="g6752"
         transform="matrix(0.49999999,0,0,0.49999998,55.574859,77.137901)">
        <g
           word-spacing="normal"
           letter-spacing="normal"
           font-size-adjust="none"
           font-stretch="normal"
           font-weight="normal"
           font-variant="normal"
           font-style="normal"
           stroke-miterlimit="10.433"
           xml:space="preserve"
           transform="matrix(0.3,0,0,-0.3,-52.5,222.75)"
           id="g6750"
           style="font-style:normal;font-variant:normal;font-weight:normal;font-stretch:normal;letter-spacing:normal;word-spacing:normal;text-anchor:start;fill:none;fill-opacity:1;fill-rule:evenodd;stroke:#000000;stroke-width:2;stroke-linecap:butt;stroke-linejoin:miter;stroke-miterlimit:10.43299961;stroke-dasharray:none;stroke-dashoffset:0;stroke-opacity:1"><path
             id="path6748"
             d="m 459.91,409.14 -0.02,-0.07 -0.01,-0.08 -0.02,-0.07 -0.01,-0.08 -0.04,-0.16 -0.04,-0.16 -0.03,-0.16 -0.04,-0.16 -0.04,-0.16 -0.03,-0.16 -0.02,-0.08 -0.02,-0.07 -0.02,-0.07 -0.01,-0.07 -0.02,-0.07 -0.01,-0.07 -0.01,-0.06 -0.01,-0.06 -0.01,-0.06 -0.01,-0.05 -0.01,-0.05 -0.01,-0.04 -0.01,-0.04 v -0.04 -0.03 -0.02 c 0,-0.89 0.7,-1.35 1.43,-1.35 0.61,0 1.5,0.39 1.85,1.39 0.06,0.11 0.65,2.44 0.95,3.69 l 1.1,4.48 c 0.29,1.1 0.59,2.19 0.84,3.35 0.2,0.84 0.61,2.28 0.66,2.48 0.75,1.55 3.39,6.08 8.1,6.08 2.25,0 2.71,-1.84 2.71,-3.48 0,-1.25 -0.36,-2.64 -0.75,-4.14 l -1.39,-5.79 -1,-3.78 c -0.21,-1 -0.66,-2.68 -0.66,-2.93 0,-0.89 0.7,-1.35 1.45,-1.35 1.55,0 1.85,1.25 2.24,2.85 0.7,2.78 2.55,10.06 3,12 0.14,0.65 2.78,6.62 8.22,6.62 2.14,0 2.68,-1.69 2.68,-3.48 0,-2.85 -2.09,-8.52 -3.09,-11.16 -0.45,-1.2 -0.64,-1.75 -0.64,-2.75 0,-2.33 1.73,-4.08 4.08,-4.08 4.69,0 6.53,7.27 6.53,7.67 0,0.5 -0.45,0.5 -0.59,0.5 -0.5,0 -0.5,-0.15 -0.75,-0.9 -0.75,-2.64 -2.35,-6.17 -5.08,-6.17 -0.86,0 -1.21,0.5 -1.21,1.64 0,1.25 0.46,2.45 0.9,3.54 0.95,2.58 3.04,8.11 3.04,10.96 0,3.23 -2,5.32 -5.73,5.32 -3.74,0 -6.27,-2.18 -8.11,-4.82 -0.06,0.65 -0.2,2.34 -1.61,3.53 -1.24,1.04 -2.83,1.29 -4.08,1.29 -4.48,0 -6.92,-3.18 -7.76,-4.32 -0.25,2.84 -2.35,4.32 -4.6,4.32 -2.28,0 -3.23,-1.93 -3.69,-2.82 -0.89,-1.75 -1.54,-4.69 -1.54,-4.85 0,-0.5 0.5,-0.5 0.61,-0.5 0.5,0 0.54,0.07 0.84,1.16 0.84,3.53 1.84,5.92 3.64,5.92 0.8,0 1.55,-0.39 1.55,-2.28 0,-1.05 -0.16,-1.61 -0.8,-4.19 z"
             inkscape:connector-curvature="0"
             style="fill:#000000;stroke-width:0" /></g>      </g>
      <g
         transform="matrix(0.49999999,0,0,0.49999998,55.574861,90.137894)"
         id="g6774"
         style="stroke-width:2">
        <g
           style="font-style:normal;font-variant:normal;font-weight:normal;font-stretch:normal;letter-spacing:normal;word-spacing:normal;text-anchor:start;fill:none;fill-opacity:1;fill-rule:evenodd;stroke:#000000;stroke-width:2;stroke-linecap:butt;stroke-linejoin:miter;stroke-miterlimit:10.43299961;stroke-dasharray:none;stroke-dashoffset:0;stroke-opacity:1"
           id="g6772"
           transform="matrix(0.3,0,0,-0.3,-52.5,222.75)"
           xml:space="preserve"
           stroke-miterlimit="10.433"
           font-style="normal"
           font-variant="normal"
           font-weight="normal"
           font-stretch="normal"
           font-size-adjust="none"
           letter-spacing="normal"
           word-spacing="normal"><path
             style="fill:#000000;stroke-width:0"
             inkscape:connector-curvature="0"
             d="m 459.91,409.14 -0.02,-0.07 -0.01,-0.08 -0.02,-0.07 -0.01,-0.08 -0.04,-0.16 -0.04,-0.16 -0.03,-0.16 -0.04,-0.16 -0.04,-0.16 -0.03,-0.16 -0.02,-0.08 -0.02,-0.07 -0.02,-0.07 -0.01,-0.07 -0.02,-0.07 -0.01,-0.07 -0.01,-0.06 -0.01,-0.06 -0.01,-0.06 -0.01,-0.05 -0.01,-0.05 -0.01,-0.04 -0.01,-0.04 v -0.04 -0.03 -0.02 c 0,-0.89 0.7,-1.35 1.43,-1.35 0.61,0 1.5,0.39 1.85,1.39 0.06,0.11 0.65,2.44 0.95,3.69 l 1.1,4.48 c 0.29,1.1 0.59,2.19 0.84,3.35 0.2,0.84 0.61,2.28 0.66,2.48 0.75,1.55 3.39,6.08 8.1,6.08 2.25,0 2.71,-1.84 2.71,-3.48 0,-1.25 -0.36,-2.64 -0.75,-4.14 l -1.39,-5.79 -1,-3.78 c -0.21,-1 -0.66,-2.68 -0.66,-2.93 0,-0.89 0.7,-1.35 1.45,-1.35 1.55,0 1.85,1.25 2.24,2.85 0.7,2.78 2.55,10.06 3,12 0.14,0.65 2.78,6.62 8.22,6.62 2.14,0 2.68,-1.69 2.68,-3.48 0,-2.85 -2.09,-8.52 -3.09,-11.16 -0.45,-1.2 -0.64,-1.75 -0.64,-2.75 0,-2.33 1.73,-4.08 4.08,-4.08 4.69,0 6.53,7.27 6.53,7.67 0,0.5 -0.45,0.5 -0.59,0.5 -0.5,0 -0.5,-0.15 -0.75,-0.9 -0.75,-2.64 -2.35,-6.17 -5.08,-6.17 -0.86,0 -1.21,0.5 -1.21,1.64 0,1.25 0.46,2.45 0.9,3.54 0.95,2.58 3.04,8.11 3.04,10.96 0,3.23 -2,5.32 -5.73,5.32 -3.74,0 -6.27,-2.18 -8.11,-4.82 -0.06,0.65 -0.2,2.34 -1.61,3.53 -1.24,1.04 -2.83,1.29 -4.08,1.29 -4.48,0 -6.92,-3.18 -7.76,-4.32 -0.25,2.84 -2.35,4.32 -4.6,4.32 -2.28,0 -3.23,-1.93 -3.69,-2.82 -0.89,-1.75 -1.54,-4.69 -1.54,-4.85 0,-0.5 0.5,-0.5 0.61,-0.5 0.5,0 0.54,0.07 0.84,1.16 0.84,3.53 1.84,5.92 3.64,5.92 0.8,0 1.55,-0.39 1.55,-2.28 0,-1.05 -0.16,-1.61 -0.8,-4.19 z"
             id="path6770" /></g>      </g>
      <g
         transform="matrix(0.49999999,0,0,0.49999998,55.574861,103.13787)"
         id="g6804"
         style="stroke-width:2">
        <g
           style="font-style:normal;font-variant:normal;font-weight:normal;font-stretch:normal;letter-spacing:normal;word-spacing:normal;text-anchor:start;fill:none;fill-opacity:1;fill-rule:evenodd;stroke:#000000;stroke-width:2;stroke-linecap:butt;stroke-linejoin:miter;stroke-miterlimit:10.43299961;stroke-dasharray:none;stroke-dashoffset:0;stroke-opacity:1"
           id="g6802"
           transform="matrix(0.3,0,0,-0.3,-52.5,222.75)"
           xml:space="preserve"
           stroke-miterlimit="10.433"
           font-style="normal"
           font-variant="normal"
           font-weight="normal"
           font-stretch="normal"
           font-size-adjust="none"
           letter-spacing="normal"
           word-spacing="normal"><path
             style="fill:#000000;stroke-width:0"
             inkscape:connector-curvature="0"
             d="m 459.91,409.14 -0.02,-0.07 -0.01,-0.08 -0.02,-0.07 -0.01,-0.08 -0.04,-0.16 -0.04,-0.16 -0.03,-0.16 -0.04,-0.16 -0.04,-0.16 -0.03,-0.16 -0.02,-0.08 -0.02,-0.07 -0.02,-0.07 -0.01,-0.07 -0.02,-0.07 -0.01,-0.07 -0.01,-0.06 -0.01,-0.06 -0.01,-0.06 -0.01,-0.05 -0.01,-0.05 -0.01,-0.04 -0.01,-0.04 v -0.04 -0.03 -0.02 c 0,-0.89 0.7,-1.35 1.43,-1.35 0.61,0 1.5,0.39 1.85,1.39 0.06,0.11 0.65,2.44 0.95,3.69 l 1.1,4.48 c 0.29,1.1 0.59,2.19 0.84,3.35 0.2,0.84 0.61,2.28 0.66,2.48 0.75,1.55 3.39,6.08 8.1,6.08 2.25,0 2.71,-1.84 2.71,-3.48 0,-1.25 -0.36,-2.64 -0.75,-4.14 l -1.39,-5.79 -1,-3.78 c -0.21,-1 -0.66,-2.68 -0.66,-2.93 0,-0.89 0.7,-1.35 1.45,-1.35 1.55,0 1.85,1.25 2.24,2.85 0.7,2.78 2.55,10.06 3,12 0.14,0.65 2.78,6.62 8.22,6.62 2.14,0 2.68,-1.69 2.68,-3.48 0,-2.85 -2.09,-8.52 -3.09,-11.16 -0.45,-1.2 -0.64,-1.75 -0.64,-2.75 0,-2.33 1.73,-4.08 4.08,-4.08 4.69,0 6.53,7.27 6.53,7.67 0,0.5 -0.45,0.5 -0.59,0.5 -0.5,0 -0.5,-0.15 -0.75,-0.9 -0.75,-2.64 -2.35,-6.17 -5.08,-6.17 -0.86,0 -1.21,0.5 -1.21,1.64 0,1.25 0.46,2.45 0.9,3.54 0.95,2.58 3.04,8.11 3.04,10.96 0,3.23 -2,5.32 -5.73,5.32 -3.74,0 -6.27,-2.18 -8.11,-4.82 -0.06,0.65 -0.2,2.34 -1.61,3.53 -1.24,1.04 -2.83,1.29 -4.08,1.29 -4.48,0 -6.92,-3.18 -7.76,-4.32 -0.25,2.84 -2.35,4.32 -4.6,4.32 -2.28,0 -3.23,-1.93 -3.69,-2.82 -0.89,-1.75 -1.54,-4.69 -1.54,-4.85 0,-0.5 0.5,-0.5 0.61,-0.5 0.5,0 0.54,0.07 0.84,1.16 0.84,3.53 1.84,5.92 3.64,5.92 0.8,0 1.55,-0.39 1.55,-2.28 0,-1.05 -0.16,-1.61 -0.8,-4.19 z"
             id="path6800" /></g>      </g>
      <g
         style="stroke-width:2"
         id="g6824"
         transform="matrix(0.49999999,0,0,0.49999998,55.574861,116.13786)">
        <g
           word-spacing="normal"
           letter-spacing="normal"
           font-size-adjust="none"
           font-stretch="normal"
           font-weight="normal"
           font-variant="normal"
           font-style="normal"
           stroke-miterlimit="10.433"
           xml:space="preserve"
           transform="matrix(0.3,0,0,-0.3,-52.5,222.75)"
           id="g6822"
           style="font-style:normal;font-variant:normal;font-weight:normal;font-stretch:normal;letter-spacing:normal;word-spacing:normal;text-anchor:start;fill:none;fill-opacity:1;fill-rule:evenodd;stroke:#000000;stroke-width:2;stroke-linecap:butt;stroke-linejoin:miter;stroke-miterlimit:10.43299961;stroke-dasharray:none;stroke-dashoffset:0;stroke-opacity:1"><path
             id="path6820"
             d="m 459.91,409.14 -0.02,-0.07 -0.01,-0.08 -0.02,-0.07 -0.01,-0.08 -0.04,-0.16 -0.04,-0.16 -0.03,-0.16 -0.04,-0.16 -0.04,-0.16 -0.03,-0.16 -0.02,-0.08 -0.02,-0.07 -0.02,-0.07 -0.01,-0.07 -0.02,-0.07 -0.01,-0.07 -0.01,-0.06 -0.01,-0.06 -0.01,-0.06 -0.01,-0.05 -0.01,-0.05 -0.01,-0.04 -0.01,-0.04 v -0.04 -0.03 -0.02 c 0,-0.89 0.7,-1.35 1.43,-1.35 0.61,0 1.5,0.39 1.85,1.39 0.06,0.11 0.65,2.44 0.95,3.69 l 1.1,4.48 c 0.29,1.1 0.59,2.19 0.84,3.35 0.2,0.84 0.61,2.28 0.66,2.48 0.75,1.55 3.39,6.08 8.1,6.08 2.25,0 2.71,-1.84 2.71,-3.48 0,-1.25 -0.36,-2.64 -0.75,-4.14 l -1.39,-5.79 -1,-3.78 c -0.21,-1 -0.66,-2.68 -0.66,-2.93 0,-0.89 0.7,-1.35 1.45,-1.35 1.55,0 1.85,1.25 2.24,2.85 0.7,2.78 2.55,10.06 3,12 0.14,0.65 2.78,6.62 8.22,6.62 2.14,0 2.68,-1.69 2.68,-3.48 0,-2.85 -2.09,-8.52 -3.09,-11.16 -0.45,-1.2 -0.64,-1.75 -0.64,-2.75 0,-2.33 1.73,-4.08 4.08,-4.08 4.69,0 6.53,7.27 6.53,7.67 0,0.5 -0.45,0.5 -0.59,0.5 -0.5,0 -0.5,-0.15 -0.75,-0.9 -0.75,-2.64 -2.35,-6.17 -5.08,-6.17 -0.86,0 -1.21,0.5 -1.21,1.64 0,1.25 0.46,2.45 0.9,3.54 0.95,2.58 3.04,8.11 3.04,10.96 0,3.23 -2,5.32 -5.73,5.32 -3.74,0 -6.27,-2.18 -8.11,-4.82 -0.06,0.65 -0.2,2.34 -1.61,3.53 -1.24,1.04 -2.83,1.29 -4.08,1.29 -4.48,0 -6.92,-3.18 -7.76,-4.32 -0.25,2.84 -2.35,4.32 -4.6,4.32 -2.28,0 -3.23,-1.93 -3.69,-2.82 -0.89,-1.75 -1.54,-4.69 -1.54,-4.85 0,-0.5 0.5,-0.5 0.61,-0.5 0.5,0 0.54,0.07 0.84,1.16 0.84,3.53 1.84,5.92 3.64,5.92 0.8,0 1.55,-0.39 1.55,-2.28 0,-1.05 -0.16,-1.61 -0.8,-4.19 z"
             inkscape:connector-curvature="0"
             style="fill:#000000;stroke-width:0" /></g>      </g>
      <g
         transform="matrix(0.49999999,0,0,0.49999998,55.574861,129.13785)"
         id="g6844"
         style="stroke-width:2">
        <g
           style="font-style:normal;font-variant:normal;font-weight:normal;font-stretch:normal;letter-spacing:normal;word-spacing:normal;text-anchor:start;fill:none;fill-opacity:1;fill-rule:evenodd;stroke:#000000;stroke-width:2;stroke-linecap:butt;stroke-linejoin:miter;stroke-miterlimit:10.43299961;stroke-dasharray:none;stroke-dashoffset:0;stroke-opacity:1"
           id="g6842"
           transform="matrix(0.3,0,0,-0.3,-52.5,222.75)"
           xml:space="preserve"
           stroke-miterlimit="10.433"
           font-style="normal"
           font-variant="normal"
           font-weight="normal"
           font-stretch="normal"
           font-size-adjust="none"
           letter-spacing="normal"
           word-spacing="normal"><path
             style="fill:#000000;stroke-width:0"
             inkscape:connector-curvature="0"
             d="m 459.91,409.14 -0.02,-0.07 -0.01,-0.08 -0.02,-0.07 -0.01,-0.08 -0.04,-0.16 -0.04,-0.16 -0.03,-0.16 -0.04,-0.16 -0.04,-0.16 -0.03,-0.16 -0.02,-0.08 -0.02,-0.07 -0.02,-0.07 -0.01,-0.07 -0.02,-0.07 -0.01,-0.07 -0.01,-0.06 -0.01,-0.06 -0.01,-0.06 -0.01,-0.05 -0.01,-0.05 -0.01,-0.04 -0.01,-0.04 v -0.04 -0.03 -0.02 c 0,-0.89 0.7,-1.35 1.43,-1.35 0.61,0 1.5,0.39 1.85,1.39 0.06,0.11 0.65,2.44 0.95,3.69 l 1.1,4.48 c 0.29,1.1 0.59,2.19 0.84,3.35 0.2,0.84 0.61,2.28 0.66,2.48 0.75,1.55 3.39,6.08 8.1,6.08 2.25,0 2.71,-1.84 2.71,-3.48 0,-1.25 -0.36,-2.64 -0.75,-4.14 l -1.39,-5.79 -1,-3.78 c -0.21,-1 -0.66,-2.68 -0.66,-2.93 0,-0.89 0.7,-1.35 1.45,-1.35 1.55,0 1.85,1.25 2.24,2.85 0.7,2.78 2.55,10.06 3,12 0.14,0.65 2.78,6.62 8.22,6.62 2.14,0 2.68,-1.69 2.68,-3.48 0,-2.85 -2.09,-8.52 -3.09,-11.16 -0.45,-1.2 -0.64,-1.75 -0.64,-2.75 0,-2.33 1.73,-4.08 4.08,-4.08 4.69,0 6.53,7.27 6.53,7.67 0,0.5 -0.45,0.5 -0.59,0.5 -0.5,0 -0.5,-0.15 -0.75,-0.9 -0.75,-2.64 -2.35,-6.17 -5.08,-6.17 -0.86,0 -1.21,0.5 -1.21,1.64 0,1.25 0.46,2.45 0.9,3.54 0.95,2.58 3.04,8.11 3.04,10.96 0,3.23 -2,5.32 -5.73,5.32 -3.74,0 -6.27,-2.18 -8.11,-4.82 -0.06,0.65 -0.2,2.34 -1.61,3.53 -1.24,1.04 -2.83,1.29 -4.08,1.29 -4.48,0 -6.92,-3.18 -7.76,-4.32 -0.25,2.84 -2.35,4.32 -4.6,4.32 -2.28,0 -3.23,-1.93 -3.69,-2.82 -0.89,-1.75 -1.54,-4.69 -1.54,-4.85 0,-0.5 0.5,-0.5 0.61,-0.5 0.5,0 0.54,0.07 0.84,1.16 0.84,3.53 1.84,5.92 3.64,5.92 0.8,0 1.55,-0.39 1.55,-2.28 0,-1.05 -0.16,-1.61 -0.8,-4.19 z"
             id="path6840" /></g>      </g>
      <g
         style="stroke-width:2"
         id="g6854"
         transform="matrix(0.49999999,0,0,0.49999998,55.574859,155.79024)">
        <g
           word-spacing="normal"
           letter-spacing="normal"
           font-size-adjust="none"
           font-stretch="normal"
           font-weight="normal"
           font-variant="normal"
           font-style="normal"
           stroke-miterlimit="10.433"
           xml:space="preserve"
           transform="matrix(0.3,0,0,-0.3,-52.5,222.75)"
           id="g6852"
           style="font-style:normal;font-variant:normal;font-weight:normal;font-stretch:normal;letter-spacing:normal;word-spacing:normal;text-anchor:start;fill:none;fill-opacity:1;fill-rule:evenodd;stroke:#000000;stroke-width:2;stroke-linecap:butt;stroke-linejoin:miter;stroke-miterlimit:10.43299961;stroke-dasharray:none;stroke-dashoffset:0;stroke-opacity:1"><path
             id="path6850"
             d="m 459.91,409.14 -0.02,-0.07 -0.01,-0.08 -0.02,-0.07 -0.01,-0.08 -0.04,-0.16 -0.04,-0.16 -0.03,-0.16 -0.04,-0.16 -0.04,-0.16 -0.03,-0.16 -0.02,-0.08 -0.02,-0.07 -0.02,-0.07 -0.01,-0.07 -0.02,-0.07 -0.01,-0.07 -0.01,-0.06 -0.01,-0.06 -0.01,-0.06 -0.01,-0.05 -0.01,-0.05 -0.01,-0.04 -0.01,-0.04 v -0.04 -0.03 -0.02 c 0,-0.89 0.7,-1.35 1.43,-1.35 0.61,0 1.5,0.39 1.85,1.39 0.06,0.11 0.65,2.44 0.95,3.69 l 1.1,4.48 c 0.29,1.1 0.59,2.19 0.84,3.35 0.2,0.84 0.61,2.28 0.66,2.48 0.75,1.55 3.39,6.08 8.1,6.08 2.25,0 2.71,-1.84 2.71,-3.48 0,-1.25 -0.36,-2.64 -0.75,-4.14 l -1.39,-5.79 -1,-3.78 c -0.21,-1 -0.66,-2.68 -0.66,-2.93 0,-0.89 0.7,-1.35 1.45,-1.35 1.55,0 1.85,1.25 2.24,2.85 0.7,2.78 2.55,10.06 3,12 0.14,0.65 2.78,6.62 8.22,6.62 2.14,0 2.68,-1.69 2.68,-3.48 0,-2.85 -2.09,-8.52 -3.09,-11.16 -0.45,-1.2 -0.64,-1.75 -0.64,-2.75 0,-2.33 1.73,-4.08 4.08,-4.08 4.69,0 6.53,7.27 6.53,7.67 0,0.5 -0.45,0.5 -0.59,0.5 -0.5,0 -0.5,-0.15 -0.75,-0.9 -0.75,-2.64 -2.35,-6.17 -5.08,-6.17 -0.86,0 -1.21,0.5 -1.21,1.64 0,1.25 0.46,2.45 0.9,3.54 0.95,2.58 3.04,8.11 3.04,10.96 0,3.23 -2,5.32 -5.73,5.32 -3.74,0 -6.27,-2.18 -8.11,-4.82 -0.06,0.65 -0.2,2.34 -1.61,3.53 -1.24,1.04 -2.83,1.29 -4.08,1.29 -4.48,0 -6.92,-3.18 -7.76,-4.32 -0.25,2.84 -2.35,4.32 -4.6,4.32 -2.28,0 -3.23,-1.93 -3.69,-2.82 -0.89,-1.75 -1.54,-4.69 -1.54,-4.85 0,-0.5 0.5,-0.5 0.61,-0.5 0.5,0 0.54,0.07 0.84,1.16 0.84,3.53 1.84,5.92 3.64,5.92 0.8,0 1.55,-0.39 1.55,-2.28 0,-1.05 -0.16,-1.61 -0.8,-4.19 z"
             inkscape:connector-curvature="0"
             style="fill:#000000;stroke-width:0" /></g>      </g>
      <g
         transform="translate(-0.05433973)"
         id="g7183">
        <circle
           r="4"
           cy="223.37901"
           cx="95.398186"
           id="path6106"
           style="opacity:1;vector-effect:none;fill:#b3b3b3;fill-opacity:1;stroke:#000000;stroke-width:1;stroke-linecap:butt;stroke-linejoin:miter;stroke-miterlimit:4;stroke-dasharray:none;stroke-dashoffset:0;stroke-opacity:1;paint-order:stroke markers fill" />
        <circle
           style="opacity:1;vector-effect:none;fill:#b3b3b3;fill-opacity:1;stroke:#000000;stroke-width:1;stroke-linecap:butt;stroke-linejoin:miter;stroke-miterlimit:4;stroke-dasharray:none;stroke-dashoffset:0;stroke-opacity:1;paint-order:stroke markers fill"
           id="circle6110"
           cx="95.398186"
           cy="236.379"
           r="4" />
        <circle
           r="4"
           cy="249.379"
           cx="95.398186"
           id="circle6114"
           style="opacity:1;vector-effect:none;fill:#b3b3b3;fill-opacity:1;stroke:#000000;stroke-width:1;stroke-linecap:butt;stroke-linejoin:miter;stroke-miterlimit:4;stroke-dasharray:none;stroke-dashoffset:0;stroke-opacity:1;paint-order:stroke markers fill" />
        <circle
           style="opacity:1;vector-effect:none;fill:#b3b3b3;fill-opacity:1;stroke:#000000;stroke-width:1;stroke-linecap:butt;stroke-linejoin:miter;stroke-miterlimit:4;stroke-dasharray:none;stroke-dashoffset:0;stroke-opacity:1;paint-order:stroke markers fill"
           id="circle6766"
           cx="95.398186"
           cy="131.72665"
           r="4" />
        <circle
           r="4"
           cy="144.72664"
           cx="95.398186"
           id="circle6768"
           style="opacity:1;vector-effect:none;fill:#b3b3b3;fill-opacity:1;stroke:#000000;stroke-width:1;stroke-linecap:butt;stroke-linejoin:miter;stroke-miterlimit:4;stroke-dasharray:none;stroke-dashoffset:0;stroke-opacity:1;paint-order:stroke markers fill" />
        <circle
           r="4"
           cy="157.72662"
           cx="95.398186"
           id="circle6798"
           style="opacity:1;vector-effect:none;fill:#b3b3b3;fill-opacity:1;stroke:#000000;stroke-width:1;stroke-linecap:butt;stroke-linejoin:miter;stroke-miterlimit:4;stroke-dasharray:none;stroke-dashoffset:0;stroke-opacity:1;paint-order:stroke markers fill" />
        <circle
           style="opacity:1;vector-effect:none;fill:#b3b3b3;fill-opacity:1;stroke:#000000;stroke-width:1;stroke-linecap:butt;stroke-linejoin:miter;stroke-miterlimit:4;stroke-dasharray:none;stroke-dashoffset:0;stroke-opacity:1;paint-order:stroke markers fill"
           id="circle6818"
           cx="95.398186"
           cy="170.72661"
           r="4" />
        <circle
           r="4"
           cy="183.72659"
           cx="95.398186"
           id="circle6838"
           style="opacity:1;vector-effect:none;fill:#b3b3b3;fill-opacity:1;stroke:#000000;stroke-width:1;stroke-linecap:butt;stroke-linejoin:miter;stroke-miterlimit:4;stroke-dasharray:none;stroke-dashoffset:0;stroke-opacity:1;paint-order:stroke markers fill" />
        <circle
           style="opacity:1;vector-effect:none;fill:#b3b3b3;fill-opacity:1;stroke:#000000;stroke-width:1;stroke-linecap:butt;stroke-linejoin:miter;stroke-miterlimit:4;stroke-dasharray:none;stroke-dashoffset:0;stroke-opacity:1;paint-order:stroke markers fill"
           id="circle6864"
           cx="95.398186"
           cy="210.37901"
           r="4" />
      </g>
      <g
         id="g6870"
         transform="matrix(0.49999998,0,0,0.49999999,-2.3789929,169.47601)"
         style="stroke-width:2">
        <g
           word-spacing="normal"
           letter-spacing="normal"
           font-size-adjust="none"
           font-stretch="normal"
           font-weight="normal"
           font-variant="normal"
           font-style="normal"
           stroke-miterlimit="10.433"
           xml:space="preserve"
           transform="matrix(0.3,0,0,-0.3,-52.5,222.75)"
           id="g6868"
           style="font-style:normal;font-variant:normal;font-weight:normal;font-stretch:normal;letter-spacing:normal;word-spacing:normal;text-anchor:start;fill:none;fill-opacity:1;fill-rule:evenodd;stroke:#000000;stroke-width:4;stroke-linecap:butt;stroke-linejoin:miter;stroke-miterlimit:10.43299961;stroke-dasharray:none;stroke-dashoffset:0;stroke-opacity:1"><path
             id="path6866"
             d="m 469.82,440.23 v 0 0.01 0 0.01 l -0.01,0.02 v 0.01 0.02 0.02 0.02 l -0.01,0.02 v 0.02 l -0.01,0.02 -0.01,0.02 -0.01,0.03 -0.01,0.02 -0.01,0.03 -0.01,0.02 -0.02,0.03 -0.02,0.02 -0.02,0.02 -0.02,0.03 -0.01,0.01 -0.01,0.01 -0.02,0.01 -0.01,0.01 -0.02,0.01 -0.01,0.01 -0.02,0.01 -0.01,0.01 -0.02,0.01 -0.02,0.01 h -0.02 l -0.02,0.01 -0.02,0.01 h -0.02 l -0.02,0.01 -0.02,0.01 h -0.03 -0.02 l -0.03,0.01 h -0.02 -0.03 l -0.03,0.01 h -0.02 -0.03 c -1.16,0 -4.79,-0.41 -6.08,-0.5 -0.41,-0.05 -0.96,-0.1 -0.96,-1 0,-0.6 0.46,-0.6 1.21,-0.6 2.39,0 2.48,-0.34 2.48,-0.84 l -0.15,-1 -7.22,-28.7 c -0.21,-0.69 -0.21,-0.8 -0.21,-1.1 0,-1.14 1,-1.39 1.46,-1.39 0.64,0 1.39,0.46 1.68,1.05 0.25,0.45 2.5,9.66 2.8,10.91 1.69,-0.15 5.78,-0.94 5.78,-4.24 0,-0.34 0,-0.55 -0.15,-1.05 -0.1,-0.59 -0.21,-1.18 -0.21,-1.73 0,-2.95 2,-4.94 4.6,-4.94 1.48,0 2.83,0.8 3.93,2.64 1.24,2.19 1.79,4.94 1.79,5.03 0,0.5 -0.44,0.5 -0.6,0.5 -0.5,0 -0.54,-0.2 -0.7,-0.9 -0.99,-3.63 -2.14,-6.17 -4.33,-6.17 -0.94,0 -1.59,0.54 -1.59,2.34 0,0.84 0.2,1.98 0.4,2.78 0.19,0.86 0.19,1.05 0.19,1.55 0,3.25 -3.14,4.69 -7.37,5.23 1.54,0.91 3.14,2.5 4.29,3.69 2.39,2.64 4.67,4.78 7.13,4.78 0.29,0 0.34,0 0.44,-0.05 0.6,-0.09 0.65,-0.09 1.04,-0.39 0.11,-0.06 0.11,-0.11 0.21,-0.2 -2.4,-0.16 -2.85,-2.09 -2.85,-2.69 0,-0.79 0.55,-1.75 1.89,-1.75 1.3,0 2.75,1.1 2.75,3.03 0,1.5 -1.15,3.14 -3.39,3.14 -1.39,0 -3.69,-0.39 -7.28,-4.37 -1.69,-1.89 -3.62,-3.89 -5.52,-4.64 z"
             inkscape:connector-curvature="0"
             style="fill:#000000;stroke-width:0" /></g>      </g>
      <g
         style="stroke-width:2"
         transform="matrix(0.49999998,0,0,0.49999999,-2.3789929,129.82363)"
         id="g6878">
        <g
           style="font-style:normal;font-variant:normal;font-weight:normal;font-stretch:normal;letter-spacing:normal;word-spacing:normal;text-anchor:start;fill:none;fill-opacity:1;fill-rule:evenodd;stroke:#000000;stroke-width:4;stroke-linecap:butt;stroke-linejoin:miter;stroke-miterlimit:10.43299961;stroke-dasharray:none;stroke-dashoffset:0;stroke-opacity:1"
           id="g6876"
           transform="matrix(0.3,0,0,-0.3,-52.5,222.75)"
           xml:space="preserve"
           stroke-miterlimit="10.433"
           font-style="normal"
           font-variant="normal"
           font-weight="normal"
           font-stretch="normal"
           font-size-adjust="none"
           letter-spacing="normal"
           word-spacing="normal"><path
             style="fill:#000000;stroke-width:0"
             inkscape:connector-curvature="0"
             d="m 469.82,440.23 v 0 0.01 0 0.01 l -0.01,0.02 v 0.01 0.02 0.02 0.02 l -0.01,0.02 v 0.02 l -0.01,0.02 -0.01,0.02 -0.01,0.03 -0.01,0.02 -0.01,0.03 -0.01,0.02 -0.02,0.03 -0.02,0.02 -0.02,0.02 -0.02,0.03 -0.01,0.01 -0.01,0.01 -0.02,0.01 -0.01,0.01 -0.02,0.01 -0.01,0.01 -0.02,0.01 -0.01,0.01 -0.02,0.01 -0.02,0.01 h -0.02 l -0.02,0.01 -0.02,0.01 h -0.02 l -0.02,0.01 -0.02,0.01 h -0.03 -0.02 l -0.03,0.01 h -0.02 -0.03 l -0.03,0.01 h -0.02 -0.03 c -1.16,0 -4.79,-0.41 -6.08,-0.5 -0.41,-0.05 -0.96,-0.1 -0.96,-1 0,-0.6 0.46,-0.6 1.21,-0.6 2.39,0 2.48,-0.34 2.48,-0.84 l -0.15,-1 -7.22,-28.7 c -0.21,-0.69 -0.21,-0.8 -0.21,-1.1 0,-1.14 1,-1.39 1.46,-1.39 0.64,0 1.39,0.46 1.68,1.05 0.25,0.45 2.5,9.66 2.8,10.91 1.69,-0.15 5.78,-0.94 5.78,-4.24 0,-0.34 0,-0.55 -0.15,-1.05 -0.1,-0.59 -0.21,-1.18 -0.21,-1.73 0,-2.95 2,-4.94 4.6,-4.94 1.48,0 2.83,0.8 3.93,2.64 1.24,2.19 1.79,4.94 1.79,5.03 0,0.5 -0.44,0.5 -0.6,0.5 -0.5,0 -0.54,-0.2 -0.7,-0.9 -0.99,-3.63 -2.14,-6.17 -4.33,-6.17 -0.94,0 -1.59,0.54 -1.59,2.34 0,0.84 0.2,1.98 0.4,2.78 0.19,0.86 0.19,1.05 0.19,1.55 0,3.25 -3.14,4.69 -7.37,5.23 1.54,0.91 3.14,2.5 4.29,3.69 2.39,2.64 4.67,4.78 7.13,4.78 0.29,0 0.34,0 0.44,-0.05 0.6,-0.09 0.65,-0.09 1.04,-0.39 0.11,-0.06 0.11,-0.11 0.21,-0.2 -2.4,-0.16 -2.85,-2.09 -2.85,-2.69 0,-0.79 0.55,-1.75 1.89,-1.75 1.3,0 2.75,1.1 2.75,3.03 0,1.5 -1.15,3.14 -3.39,3.14 -1.39,0 -3.69,-0.39 -7.28,-4.37 -1.69,-1.89 -3.62,-3.89 -5.52,-4.64 z"
             id="path6874" /></g>      </g>
      <g
         id="g6886"
         transform="matrix(0.49999998,0,0,0.49999999,-2.3789929,116.82363)"
         style="stroke-width:2">
        <g
           word-spacing="normal"
           letter-spacing="normal"
           font-size-adjust="none"
           font-stretch="normal"
           font-weight="normal"
           font-variant="normal"
           font-style="normal"
           stroke-miterlimit="10.433"
           xml:space="preserve"
           transform="matrix(0.3,0,0,-0.3,-52.5,222.75)"
           id="g6884"
           style="font-style:normal;font-variant:normal;font-weight:normal;font-stretch:normal;letter-spacing:normal;word-spacing:normal;text-anchor:start;fill:none;fill-opacity:1;fill-rule:evenodd;stroke:#000000;stroke-width:4;stroke-linecap:butt;stroke-linejoin:miter;stroke-miterlimit:10.43299961;stroke-dasharray:none;stroke-dashoffset:0;stroke-opacity:1"><path
             id="path6882"
             d="m 469.82,440.23 v 0 0.01 0 0.01 l -0.01,0.02 v 0.01 0.02 0.02 0.02 l -0.01,0.02 v 0.02 l -0.01,0.02 -0.01,0.02 -0.01,0.03 -0.01,0.02 -0.01,0.03 -0.01,0.02 -0.02,0.03 -0.02,0.02 -0.02,0.02 -0.02,0.03 -0.01,0.01 -0.01,0.01 -0.02,0.01 -0.01,0.01 -0.02,0.01 -0.01,0.01 -0.02,0.01 -0.01,0.01 -0.02,0.01 -0.02,0.01 h -0.02 l -0.02,0.01 -0.02,0.01 h -0.02 l -0.02,0.01 -0.02,0.01 h -0.03 -0.02 l -0.03,0.01 h -0.02 -0.03 l -0.03,0.01 h -0.02 -0.03 c -1.16,0 -4.79,-0.41 -6.08,-0.5 -0.41,-0.05 -0.96,-0.1 -0.96,-1 0,-0.6 0.46,-0.6 1.21,-0.6 2.39,0 2.48,-0.34 2.48,-0.84 l -0.15,-1 -7.22,-28.7 c -0.21,-0.69 -0.21,-0.8 -0.21,-1.1 0,-1.14 1,-1.39 1.46,-1.39 0.64,0 1.39,0.46 1.68,1.05 0.25,0.45 2.5,9.66 2.8,10.91 1.69,-0.15 5.78,-0.94 5.78,-4.24 0,-0.34 0,-0.55 -0.15,-1.05 -0.1,-0.59 -0.21,-1.18 -0.21,-1.73 0,-2.95 2,-4.94 4.6,-4.94 1.48,0 2.83,0.8 3.93,2.64 1.24,2.19 1.79,4.94 1.79,5.03 0,0.5 -0.44,0.5 -0.6,0.5 -0.5,0 -0.54,-0.2 -0.7,-0.9 -0.99,-3.63 -2.14,-6.17 -4.33,-6.17 -0.94,0 -1.59,0.54 -1.59,2.34 0,0.84 0.2,1.98 0.4,2.78 0.19,0.86 0.19,1.05 0.19,1.55 0,3.25 -3.14,4.69 -7.37,5.23 1.54,0.91 3.14,2.5 4.29,3.69 2.39,2.64 4.67,4.78 7.13,4.78 0.29,0 0.34,0 0.44,-0.05 0.6,-0.09 0.65,-0.09 1.04,-0.39 0.11,-0.06 0.11,-0.11 0.21,-0.2 -2.4,-0.16 -2.85,-2.09 -2.85,-2.69 0,-0.79 0.55,-1.75 1.89,-1.75 1.3,0 2.75,1.1 2.75,3.03 0,1.5 -1.15,3.14 -3.39,3.14 -1.39,0 -3.69,-0.39 -7.28,-4.37 -1.69,-1.89 -3.62,-3.89 -5.52,-4.64 z"
             inkscape:connector-curvature="0"
             style="fill:#000000;stroke-width:0" /></g>      </g>
      <g
         style="stroke-width:2"
         transform="matrix(0.49999998,0,0,0.49999999,-2.3789929,103.82365)"
         id="g6894">
        <g
           style="font-style:normal;font-variant:normal;font-weight:normal;font-stretch:normal;letter-spacing:normal;word-spacing:normal;text-anchor:start;fill:none;fill-opacity:1;fill-rule:evenodd;stroke:#000000;stroke-width:4;stroke-linecap:butt;stroke-linejoin:miter;stroke-miterlimit:10.43299961;stroke-dasharray:none;stroke-dashoffset:0;stroke-opacity:1"
           id="g6892"
           transform="matrix(0.3,0,0,-0.3,-52.5,222.75)"
           xml:space="preserve"
           stroke-miterlimit="10.433"
           font-style="normal"
           font-variant="normal"
           font-weight="normal"
           font-stretch="normal"
           font-size-adjust="none"
           letter-spacing="normal"
           word-spacing="normal"><path
             style="fill:#000000;stroke-width:0"
             inkscape:connector-curvature="0"
             d="m 469.82,440.23 v 0 0.01 0 0.01 l -0.01,0.02 v 0.01 0.02 0.02 0.02 l -0.01,0.02 v 0.02 l -0.01,0.02 -0.01,0.02 -0.01,0.03 -0.01,0.02 -0.01,0.03 -0.01,0.02 -0.02,0.03 -0.02,0.02 -0.02,0.02 -0.02,0.03 -0.01,0.01 -0.01,0.01 -0.02,0.01 -0.01,0.01 -0.02,0.01 -0.01,0.01 -0.02,0.01 -0.01,0.01 -0.02,0.01 -0.02,0.01 h -0.02 l -0.02,0.01 -0.02,0.01 h -0.02 l -0.02,0.01 -0.02,0.01 h -0.03 -0.02 l -0.03,0.01 h -0.02 -0.03 l -0.03,0.01 h -0.02 -0.03 c -1.16,0 -4.79,-0.41 -6.08,-0.5 -0.41,-0.05 -0.96,-0.1 -0.96,-1 0,-0.6 0.46,-0.6 1.21,-0.6 2.39,0 2.48,-0.34 2.48,-0.84 l -0.15,-1 -7.22,-28.7 c -0.21,-0.69 -0.21,-0.8 -0.21,-1.1 0,-1.14 1,-1.39 1.46,-1.39 0.64,0 1.39,0.46 1.68,1.05 0.25,0.45 2.5,9.66 2.8,10.91 1.69,-0.15 5.78,-0.94 5.78,-4.24 0,-0.34 0,-0.55 -0.15,-1.05 -0.1,-0.59 -0.21,-1.18 -0.21,-1.73 0,-2.95 2,-4.94 4.6,-4.94 1.48,0 2.83,0.8 3.93,2.64 1.24,2.19 1.79,4.94 1.79,5.03 0,0.5 -0.44,0.5 -0.6,0.5 -0.5,0 -0.54,-0.2 -0.7,-0.9 -0.99,-3.63 -2.14,-6.17 -4.33,-6.17 -0.94,0 -1.59,0.54 -1.59,2.34 0,0.84 0.2,1.98 0.4,2.78 0.19,0.86 0.19,1.05 0.19,1.55 0,3.25 -3.14,4.69 -7.37,5.23 1.54,0.91 3.14,2.5 4.29,3.69 2.39,2.64 4.67,4.78 7.13,4.78 0.29,0 0.34,0 0.44,-0.05 0.6,-0.09 0.65,-0.09 1.04,-0.39 0.11,-0.06 0.11,-0.11 0.21,-0.2 -2.4,-0.16 -2.85,-2.09 -2.85,-2.69 0,-0.79 0.55,-1.75 1.89,-1.75 1.3,0 2.75,1.1 2.75,3.03 0,1.5 -1.15,3.14 -3.39,3.14 -1.39,0 -3.69,-0.39 -7.28,-4.37 -1.69,-1.89 -3.62,-3.89 -5.52,-4.64 z"
             id="path6890" /></g>      </g>
      <path
         sodipodi:nodetypes="caaaaaaaaaaaaaaaaaaaaaaaaaaaaaaac"
         inkscape:connector-curvature="0"
         id="path6964"
         d="m 41.377196,196.79267 c 0,0 2.308359,-2.34828 3.728242,-2.3159 1.323811,0.0302 2.071257,2.28571 3.395068,2.3159 1.419883,0.0324 2.308358,-2.34828 3.728241,-2.3159 1.323811,0.0302 2.071258,2.28571 3.395069,2.3159 1.419883,0.0324 2.308358,-2.34828 3.728241,-2.3159 1.323811,0.0302 2.071256,2.28571 3.395068,2.3159 1.419883,0.0324 2.308358,-2.34828 3.728241,-2.3159 1.323811,0.0302 2.071257,2.28571 3.395068,2.3159 1.419883,0.0324 2.308359,-2.34828 3.728242,-2.3159 1.323811,0.0302 2.071257,2.28571 3.395068,2.3159 1.419883,0.0324 2.308358,-2.34828 3.728242,-2.3159 1.323811,0.0302 2.071257,2.28571 3.395068,2.3159 1.419883,0.0324 2.308358,-2.34828 3.728241,-2.3159 1.323811,0.0302 2.071258,2.28571 3.395062,2.3159 1.419873,0.0324 2.308354,-2.34828 3.728232,-2.3159 1.323814,0.0302 2.071254,2.28571 3.395067,2.3159 1.419881,0.0324 2.308364,-2.34828 3.728244,-2.3159 1.32381,0.0302 2.07125,2.28571 3.39507,2.3159 1.41988,0.0324 2.30836,-2.34828 3.72824,-2.3159 1.32381,0.0302 2.07125,2.28571 3.39507,2.3159 1.41988,0.0324 2.30836,-2.34828 3.72824,-2.3159 1.32381,0.0302 2.07125,2.28571 3.39507,2.3159 1.41988,0.0324 2.30836,-2.34828 3.72824,-2.3159 1.32381,0.0302 2.07125,2.28571 3.39507,2.3159 1.41988,0.0324 2.30836,-2.34828 3.72824,-2.3159 1.32381,0.0302 2.07125,2.28571 3.39507,2.3159 1.41988,0.0324 2.30836,-2.34828 3.72824,-2.3159 1.32381,0.0302 2.07125,2.28571 3.39506,2.3159 1.41989,0.0324 2.30837,-2.34828 3.72825,-2.3159 1.3238,0.0302 2.07125,2.28571 3.39506,2.3159 1.41989,0.0324 2.30836,-2.34828 3.72825,-2.3159 1.3238,0.0302 3.39506,2.3159 3.39506,2.3159"
         style="fill:none;stroke:#000000;stroke-width:0.26458332px;stroke-linecap:butt;stroke-linejoin:miter;stroke-opacity:1" />
      <path
         style="fill:none;stroke:#000000;stroke-width:0.26458332px;stroke-linecap:butt;stroke-linejoin:miter;stroke-opacity:1"
         d="m 41.377223,199.63658 c 0,0 2.305008,-2.34828 3.72283,-2.3159 1.32189,0.0302 2.068252,2.28571 3.390141,2.3159 1.417823,0.0324 2.305009,-2.34828 3.722831,-2.3159 1.32189,0.0302 2.068251,2.28571 3.390141,2.3159 1.417822,0.0324 2.305008,-2.34828 3.72283,-2.3159 1.32189,0.0302 2.068251,2.28571 3.39014,2.3159 1.417823,0.0324 2.305009,-2.34828 3.722831,-2.3159 1.32189,0.0302 2.068251,2.28571 3.390141,2.3159 1.417822,0.0324 2.305008,-2.34828 3.72283,-2.3159 1.32189,0.0302 2.068252,2.28571 3.390141,2.3159 1.417823,0.0324 2.305008,-2.34828 3.722831,-2.3159 1.32189,0.0302 2.068251,2.28571 3.390141,2.3159 1.417822,0.0324 2.305008,-2.34828 3.72283,-2.3159 1.32189,0.0302 2.068251,2.28571 3.390135,2.3159 1.417812,0.0324 2.305004,-2.34828 3.722821,-2.3159 1.321892,0.0302 2.068247,2.28571 3.39014,2.3159 1.417819,0.0324 2.305013,-2.34828 3.722833,-2.3159 1.32189,0.0302 2.06825,2.28571 3.39014,2.3159 1.41782,0.0324 2.30501,-2.34828 3.72283,-2.3159 1.32189,0.0302 2.06825,2.28571 3.39014,2.3159 1.41782,0.0324 2.30501,-2.34828 3.72283,-2.3159 1.32189,0.0302 2.06825,2.28571 3.39014,2.3159 1.41782,0.0324 2.30501,-2.34828 3.72283,-2.3159 1.32189,0.0302 2.06825,2.28571 3.39014,2.3159 1.41782,0.0324 2.30501,-2.34828 3.72283,-2.3159 1.3219,0.0302 2.06825,2.28571 3.39014,2.3159 1.41782,0.0324 2.30502,-2.34828 3.72284,-2.3159 1.32189,0.0302 2.06824,2.28571 3.39014,2.3159 1.41782,0.0324 2.30501,-2.34828 3.72283,-2.3159 1.32188,0.0302 2.06824,2.28571 3.39014,2.3159 1.41782,0.0324 2.305,-2.34828 3.72283,-2.3159 1.32188,0.0302 3.39014,2.3159 3.39014,2.3159"
         id="path6966"
         inkscape:connector-curvature="0"
         sodipodi:nodetypes="caaaaaaaaaaaaaaaaaaaaaaaaaaaaaaac" />
      <path
         sodipodi:nodetypes="cc"
         style="fill:none;stroke:#000000;stroke-width:0.5;stroke-linecap:butt;stroke-linejoin:miter;stroke-miterlimit:4;stroke-dasharray:none;stroke-opacity:1"
         d="M 125.34402,210.37901 V 198.67462"
         id="path6970"
         inkscape:connector-curvature="0" />
      <path
         sodipodi:nodetypes="cc"
         style="fill:none;stroke:#000000;stroke-width:0.5;stroke-linecap:butt;stroke-linejoin:miter;stroke-miterlimit:4;stroke-dasharray:none;stroke-opacity:1"
         d="m 125.34402,262.37901 v -13"
         id="path6972"
         inkscape:connector-curvature="0" />
      <path
         sodipodi:nodetypes="cc"
         inkscape:connector-curvature="0"
         id="path6974"
         d="m 125.34402,249.37901 v -13"
         style="fill:none;stroke:#000000;stroke-width:0.5;stroke-linecap:butt;stroke-linejoin:miter;stroke-miterlimit:4;stroke-dasharray:none;stroke-opacity:1" />
      <path
         sodipodi:nodetypes="cc"
         style="fill:none;stroke:#000000;stroke-width:0.5;stroke-linecap:butt;stroke-linejoin:miter;stroke-miterlimit:4;stroke-dasharray:none;stroke-opacity:1"
         d="m 125.34402,236.37901 v -13"
         id="path6976"
         inkscape:connector-curvature="0" />
      <rect
         style="opacity:1;vector-effect:none;fill:#000000;fill-opacity:1;stroke:none;stroke-width:0.5;stroke-linecap:butt;stroke-linejoin:miter;stroke-miterlimit:4;stroke-dasharray:none;stroke-dashoffset:0;stroke-opacity:1;paint-order:stroke markers fill"
         id="rect6978"
         width="9.3040285"
         height="2.0739136"
         x="120.692"
         y="262.379" />
      <path
         inkscape:connector-curvature="0"
         id="path6988"
         d="m 125.34402,223.37901 v -13"
         style="fill:none;stroke:#000000;stroke-width:0.5;stroke-linecap:butt;stroke-linejoin:miter;stroke-miterlimit:4;stroke-dasharray:none;stroke-opacity:1"
         sodipodi:nodetypes="cc" />
      <path
         inkscape:connector-curvature="0"
         id="path6992"
         d="M 145.34402,210.37901 V 197.65185"
         style="fill:none;stroke:#000000;stroke-width:0.5;stroke-linecap:butt;stroke-linejoin:miter;stroke-miterlimit:4;stroke-dasharray:none;stroke-opacity:1"
         sodipodi:nodetypes="cc" />
      <path
         inkscape:connector-curvature="0"
         id="path6994"
         d="m 145.34402,262.37901 v -13"
         style="fill:none;stroke:#000000;stroke-width:0.5;stroke-linecap:butt;stroke-linejoin:miter;stroke-miterlimit:4;stroke-dasharray:none;stroke-opacity:1"
         sodipodi:nodetypes="cc" />
      <path
         style="fill:none;stroke:#000000;stroke-width:0.5;stroke-linecap:butt;stroke-linejoin:miter;stroke-miterlimit:4;stroke-dasharray:none;stroke-opacity:1"
         d="m 145.34402,249.37901 v -13"
         id="path6996"
         inkscape:connector-curvature="0"
         sodipodi:nodetypes="cc" />
      <path
         inkscape:connector-curvature="0"
         id="path6998"
         d="m 145.34402,236.37901 v -13"
         style="fill:none;stroke:#000000;stroke-width:0.5;stroke-linecap:butt;stroke-linejoin:miter;stroke-miterlimit:4;stroke-dasharray:none;stroke-opacity:1"
         sodipodi:nodetypes="cc" />
      <rect
         y="262.379"
         x="140.692"
         height="2.0739136"
         width="9.3040285"
         id="rect7000"
         style="opacity:1;vector-effect:none;fill:#000000;fill-opacity:1;stroke:none;stroke-width:0.5;stroke-linecap:butt;stroke-linejoin:miter;stroke-miterlimit:4;stroke-dasharray:none;stroke-dashoffset:0;stroke-opacity:1;paint-order:stroke markers fill" />
      <path
         sodipodi:nodetypes="cc"
         style="fill:none;stroke:#000000;stroke-width:0.5;stroke-linecap:butt;stroke-linejoin:miter;stroke-miterlimit:4;stroke-dasharray:none;stroke-opacity:1"
         d="m 145.34402,223.37901 v -13"
         id="path7010"
         inkscape:connector-curvature="0" />
      <path
         inkscape:connector-curvature="0"
         id="path7054"
         d="m 65.344013,131.72666 v 63.03683"
         style="opacity:1;vector-effect:none;fill:none;fill-opacity:1;stroke:#000000;stroke-width:0.49999997;stroke-linecap:butt;stroke-linejoin:miter;stroke-miterlimit:4;stroke-dasharray:none;stroke-dashoffset:0;stroke-opacity:1" />
      <path
         inkscape:connector-curvature="0"
         id="path7072"
         d="m 105.344,131.72666 v 65.08735"
         style="opacity:1;vector-effect:none;fill:none;fill-opacity:1;stroke:#000000;stroke-width:0.5;stroke-linecap:butt;stroke-linejoin:miter;stroke-miterlimit:4;stroke-dasharray:none;stroke-dashoffset:0;stroke-opacity:1" />
      <path
         style="opacity:1;vector-effect:none;fill:none;fill-opacity:1;stroke:#000000;stroke-width:0.49999997;stroke-linecap:butt;stroke-linejoin:miter;stroke-miterlimit:4;stroke-dasharray:none;stroke-dashoffset:0;stroke-opacity:1"
         d="m 125.344,131.72666 v 63.96482"
         id="path7074"
         inkscape:connector-curvature="0" />
    </g>
  </g>
</svg>
